<svg width="10" height="10" viewBox="0 0 10 10" fill="none" xmlns="http://www.w3.org/2000/svg">
<g id="Vector 8">
<path d="M9.70584 6.73543V0.294206L6.43544 3.58166C7.6295 2.38128 9.67909 3.21797 9.69196 4.91105L9.70584 6.73543Z" fill="#37EC7F"/>
<path d="M9.70584 0.294206H5.41169L3.26461 0.294206L5.07838 0.300771C6.78668 0.306955 7.64024 2.37054 6.43544 3.58166L9.70584 0.294206Z" fill="#37EC7F"/>
<path d="M0.332848 9.6672L6.43544 3.58166M9.70584 0.294206L5.41169 0.294206L3.26461 0.294206M9.70584 0.294206L9.70584 6.73543M9.70584 0.294206L6.43544 3.58166M1.11754 0.294206L3.26461 0.294206M9.70584 8.88251V6.73543M3.26461 0.294206L5.07838 0.300771C6.78668 0.306955 7.64024 2.37054 6.43544 3.58166V3.58166M9.70584 6.73543L9.69196 4.91105C9.67909 3.21797 7.6295 2.38128 6.43544 3.58166V3.58166" stroke="#37EC7F" stroke-width="0.562238" stroke-linecap="round" stroke-linejoin="round"/>
</g>
</svg>
