<svg width="37" height="37" viewBox="0 0 37 37" fill="none" xmlns="http://www.w3.org/2000/svg">
<g id="8">
<g id="Vector 8">
<path d="M29.2437 20.6386L29.2437 7.75614L22.7029 14.331C25.091 11.9303 29.1902 13.6037 29.216 16.9898L29.2437 20.6386Z" fill="#37EC7F"/>
<path d="M29.2437 7.75614L20.6554 7.75614L16.3613 7.75614L19.9888 7.76927C23.4054 7.78163 25.1125 11.9088 22.7029 14.331L29.2437 7.75614Z" fill="#37EC7F"/>
<path d="M10.4977 26.5021L22.7029 14.331M29.2437 7.75614L20.6554 7.75614L16.3613 7.75614M29.2437 7.75614L29.2437 20.6386M29.2437 7.75614L22.7029 14.331M12.0671 7.75614L16.3613 7.75614M29.2437 24.9327V20.6386M16.3613 7.75614L19.9888 7.76927C23.4054 7.78163 25.1125 11.9088 22.7029 14.331V14.331M29.2437 20.6386L29.216 16.9898C29.1902 13.6037 25.091 11.9303 22.7029 14.331V14.331" stroke="#37EC7F" stroke-width="8" stroke-linecap="round" stroke-linejoin="round"/>
</g>
</g>
</svg>
