<svg width="30" height="30" viewBox="0 0 30 30" fill="none" xmlns="http://www.w3.org/2000/svg">
<g id="Frame">
<path id="Vector" fill-rule="evenodd" clip-rule="evenodd" d="M11.1655 3.75098H20.9574C24.3373 3.75098 27.0774 6.4909 27.0774 9.87077V19.6624C27.0774 23.0423 24.3373 25.7822 20.9574 25.7822H11.1655C7.78553 25.7822 5.04553 23.0423 5.04553 19.6624V9.87077C5.04553 6.4909 7.78553 3.75098 11.1655 3.75098ZM21.8809 10.1748C22.5569 10.1748 23.1049 9.62686 23.1049 8.95088C23.1049 8.27492 22.5569 7.72693 21.8809 7.72693C21.2048 7.72693 20.6568 8.27492 20.6568 8.95088C20.6568 9.62686 21.2048 10.1748 21.8809 10.1748ZM16.0628 9.2588C13.0208 9.2588 10.5548 11.7247 10.5548 14.7666C10.5548 17.8085 13.0208 20.2744 16.0628 20.2744C19.1046 20.2744 21.5707 17.8085 21.5707 14.7666C21.5739 13.3049 20.9947 11.902 19.9611 10.8684C18.9273 9.83479 17.5245 9.25554 16.0628 9.2588ZM12.6966 14.7647C12.6966 16.6237 14.2036 18.1306 16.0626 18.1306C17.9215 18.1306 19.4285 16.6237 19.4285 14.7647C19.4285 12.9058 17.9215 11.3988 16.0626 11.3988C14.2036 11.3988 12.6966 12.9058 12.6966 14.7647Z" fill="white"/>
</g>
</svg>
