<svg width="19" height="15" viewBox="0 0 19 15" fill="none" xmlns="http://www.w3.org/2000/svg">
<g id="Group 57">
<g id="Group">
<path id="Vector" d="M16.8112 8.76231L17.6998 6.74658H10.8448C10.2645 6.74658 9.74459 7.06659 9.52999 7.55108L8.52349 9.83297C8.4177 10.0692 8.26355 10.2846 8.06407 10.467L7.86761 10.6464C7.47468 11.0053 6.93667 11.2087 6.37751 11.2087H2.62959C1.84676 11.2087 1.1546 11.6663 0.921867 12.3422L0 14.9889C0 14.9889 -8.05072e-08 15.0009 0.00906746 15.0009H4.46728C5.4768 15.0009 6.37146 14.4087 6.67371 13.5384L7.22079 11.9623C7.32053 11.6722 7.49584 11.4121 7.73159 11.1967L7.83436 11.101C8.22728 10.7421 8.76529 10.5388 9.32446 10.5388H13.9096C15.1851 10.5388 16.3337 9.83596 16.8082 8.76231H16.8112Z" fill="#13F287"/>
<path id="Vector_2" d="M17.8054 2.01768L18.694 0.00195312H11.8389C11.2586 0.00195312 10.7387 0.321957 10.5241 0.806449L9.51763 3.08834C9.41184 3.32461 9.2577 3.53994 9.05821 3.72237L8.86174 3.90181C8.46882 4.26069 7.93081 4.46406 7.37165 4.46406H3.62373C2.8409 4.46406 2.14874 4.92164 1.91601 5.59753L0.994141 8.24429C0.994141 8.24429 0.994141 8.25625 1.00321 8.25625H5.46142C6.47094 8.25625 7.3656 7.6641 7.66785 6.79381L8.21493 5.21771C8.31467 4.92762 8.48998 4.66743 8.72573 4.4521L8.8285 4.3564C9.22142 3.99751 9.75943 3.79415 10.3186 3.79415H14.9038C16.1793 3.79415 17.3278 3.09133 17.8023 2.01768H17.8054Z" fill="#13F287"/>
</g>
</g>
</svg>
