<svg width="22" height="18" viewBox="0 0 22 18" fill="none" xmlns="http://www.w3.org/2000/svg">
<g id="Frame">
<path id="Vector" fill-rule="evenodd" clip-rule="evenodd" d="M9.78103 10.9958V2.44166C9.78103 1.09185 8.68682 -0.00238037 7.33701 -0.00238037H2.44892C1.09912 -0.00238037 0.00488281 1.09185 0.00488281 2.44166V7.32975C0.00488281 8.67956 1.09912 9.77377 2.44892 9.77377H6.115V10.9958C6.13765 12.1795 5.30873 13.2092 4.14753 13.4399C3.87662 13.5007 3.68084 13.7367 3.67095 14.0142V16.4583C3.66186 16.6479 3.73806 16.8317 3.87869 16.9593C4.00867 17.0751 4.18265 17.1287 4.35528 17.1059C7.46008 16.756 9.80072 14.1202 9.78103 10.9958ZM14.6694 -0.00238037H19.5575C20.9073 -0.00238037 22.0015 1.09185 22.0015 2.44166V10.9958C22.0149 14.1155 19.6759 16.7443 16.5757 17.0937C16.4031 17.1165 16.2292 17.0629 16.0992 16.947C15.9683 16.8279 15.893 16.6596 15.8914 16.4827V14.0387C15.8902 13.7519 16.0883 13.5029 16.368 13.4399C17.5292 13.2092 18.3582 12.1795 18.3354 10.9958V9.77377H14.6694C13.3196 9.77377 12.2254 8.67956 12.2254 7.32975V2.44166C12.2254 1.09185 13.3196 -0.00238037 14.6694 -0.00238037Z" fill="#37EC7F"/>
</g>
</svg>
