<svg width="83" height="22" viewBox="0 0 83 22" fill="none" xmlns="http://www.w3.org/2000/svg">
<g id="Layer_1" clip-path="url(#clip0_12_2178)">
<path id="Vector" d="M7.39577 21.3695C5.01934 21.3695 3.06266 21.2507 1.52148 21.0151L1.90307 17.9652C4.11414 18.2369 6.06446 18.3727 7.74979 18.3727H8.10382C9.24645 18.3727 10.1474 18.2644 10.811 18.0458C11.4724 17.8272 11.9493 17.511 12.2398 17.0929C12.5302 16.6748 12.7104 16.1399 12.7846 15.4862C12.8206 15.1594 12.8397 14.9323 12.8397 14.805C12.8397 14.1704 12.6934 13.6886 12.4051 13.3617C12.1147 13.0349 11.6844 12.8035 11.1141 12.6677C10.5438 12.5319 9.68528 12.3918 8.54476 12.2453C7.23889 12.101 6.2065 11.8739 5.44333 11.5641C4.68228 11.2563 4.11414 10.8064 3.74316 10.2163C3.37217 9.62632 3.18562 8.83255 3.18562 7.8329C3.18562 7.43389 3.21318 6.98819 3.26617 6.49792C3.50148 4.44769 4.19046 2.98536 5.33309 2.11306C6.47573 1.24075 8.22466 0.805664 10.582 0.805664H12.4857C13.8636 0.805664 15.3857 0.824766 17.0541 0.860846L16.7001 3.85554C15.7398 3.85554 15.0041 3.84705 14.4975 3.82795L12.1317 3.80036H10.228C8.90515 3.80036 7.93847 4.0317 7.33217 4.49438C6.72376 4.95706 6.42061 5.83361 6.42061 7.1219C6.42061 7.68433 6.52872 8.10669 6.74707 8.38897C6.96543 8.67124 7.26433 8.8665 7.6438 8.97474C8.02538 9.08299 8.64016 9.20184 9.49236 9.32918C9.6556 9.34829 9.98207 9.39286 10.4718 9.46502C11.8137 9.66452 12.8821 9.9277 13.6813 10.2545C14.4784 10.5814 15.0783 11.0483 15.4769 11.6574C15.8754 12.2666 16.0747 13.0879 16.0747 14.1215C16.0747 14.5036 16.0471 14.9111 15.9941 15.3462C15.8118 16.8531 15.4175 18.0416 14.8112 18.9139C14.2028 19.7862 13.3294 20.4123 12.1868 20.7922C11.0441 21.1742 9.56656 21.3631 7.75403 21.3631H7.40001L7.39577 21.3695Z" fill="white" stroke="white" stroke-width="0.443029" stroke-miterlimit="10"/>
<path id="Vector_2" d="M18.9834 3.80695L19.3374 0.812256H35.4657L35.1117 3.80695H28.5569L26.4625 21.2615H23.2529L25.3474 3.80695H18.9834Z" fill="white" stroke="white" stroke-width="0.443029" stroke-miterlimit="10"/>
<path id="Vector_3" d="M46.8598 0.812256C48.7084 0.831357 50.133 1.2622 51.1293 2.10479C52.1257 2.9495 52.626 4.16988 52.626 5.76804C52.626 5.96754 52.6069 6.2859 52.5709 6.72099L52.4627 7.61876C52.2444 9.26998 51.6699 10.5774 50.735 11.5388C49.8001 12.5003 48.5451 13.1094 46.9679 13.3641L52.5157 21.2615H48.6003L43.4319 13.502H39.7051L38.7533 21.2615H35.5437L38.0473 0.812256H46.8598ZM45.7447 10.5604C46.7792 10.5434 47.5806 10.3248 48.1508 9.9067C48.7211 9.48859 49.0709 8.77334 49.1981 7.7546L49.3613 6.58304C49.3783 6.45569 49.3889 6.28378 49.3889 6.06517C49.3889 5.24805 49.1536 4.66227 48.6808 4.30996C48.2102 3.95552 47.5106 3.77087 46.5863 3.75177H40.9028L40.0591 10.5583H45.7426L45.7447 10.5604Z" fill="white" stroke="white" stroke-width="0.443029" stroke-miterlimit="10"/>
<path id="Vector_4" d="M57.4666 0.812256H60.6761L58.1746 21.2615H54.9651L57.4666 0.812256Z" fill="white" stroke="white" stroke-width="0.443029" stroke-miterlimit="10"/>
<path id="Vector_5" d="M67.8563 21.2615C66.932 21.2615 66.3702 20.68 66.1688 19.519L63.095 0.812256H66.4953L69.2152 18.2668H71.5004L78.5449 0.812256H82.0534L74.3284 19.7631C74.11 20.3085 73.8472 20.6927 73.5398 20.9198C73.2303 21.1469 72.8593 21.2594 72.4247 21.2594H67.8563V21.2615Z" fill="white" stroke="white" stroke-width="0.443029" stroke-miterlimit="10"/>
</g>
<defs>
<clipPath id="clip0_12_2178">
<rect width="82.187" height="21.8309" fill="white" transform="translate(0.812744 0.175537)"/>
</clipPath>
</defs>
</svg>
