<svg width="30" height="30" viewBox="0 0 30 30" fill="none" xmlns="http://www.w3.org/2000/svg">
<g id="Frame">
<path id="Vector" d="M27.457 7.99066C26.8255 8.83317 26.062 9.5681 25.1961 10.1671C25.1961 10.3872 25.1961 10.6072 25.1961 10.8396C25.203 14.8363 23.6065 18.6687 20.7645 21.4775C17.9224 24.2862 14.0726 25.8366 10.0781 25.781C7.76872 25.7886 5.48896 25.2613 3.41735 24.2404C3.30565 24.1915 3.23361 24.081 3.23402 23.9591V23.8246C3.23402 23.6491 3.37628 23.5068 3.55179 23.5068C5.82182 23.4319 8.01085 22.6449 9.80919 21.2569C7.7545 21.2155 5.90582 19.9984 5.05503 18.1269C5.01206 18.0247 5.02544 17.9073 5.09033 17.8174C5.15524 17.7275 5.26228 17.678 5.37279 17.6867C5.99725 17.7494 6.62796 17.6914 7.23046 17.5154C4.96225 17.0447 3.25794 15.1616 3.01404 12.857C3.00537 12.7464 3.05491 12.6394 3.14477 12.5744C3.23463 12.5095 3.35183 12.4961 3.45401 12.5391C4.06269 12.8077 4.71977 12.9491 5.38501 12.9548C3.39752 11.6504 2.53906 9.16926 3.29513 6.91469C3.37317 6.69561 3.56068 6.53377 3.78873 6.48863C4.01678 6.44351 4.25175 6.52174 4.40728 6.6946C7.08928 9.54896 10.7744 11.2499 14.6856 11.4387C14.5854 11.0389 14.5361 10.6281 14.5389 10.216C14.5755 8.05501 15.9127 6.12998 17.9243 5.34211C19.936 4.55424 22.2239 5.05947 23.7172 6.62125C24.7352 6.42733 25.7193 6.08543 26.6382 5.6064C26.7055 5.56438 26.791 5.56438 26.8582 5.6064C26.9002 5.67374 26.9002 5.75915 26.8582 5.82649C26.413 6.84573 25.6612 7.7006 24.7072 8.27189C25.5426 8.17501 26.3632 7.97796 27.1515 7.68499C27.2179 7.63981 27.3052 7.63981 27.3716 7.68499C27.4271 7.71043 27.4686 7.75907 27.4851 7.81797C27.5017 7.87687 27.4914 7.94004 27.457 7.99066Z" fill="white"/>
</g>
</svg>
